<?xml version="1.0" encoding="UTF-8"?>
<svg width="508px" height="72px" version="1.1" viewBox="165 0 148 68" xml:space="preserve" xmlns="http://www.w3.org/2000/svg"><path d="m70.14 30.42 14.952 21.05h-6.4079l-14.194-20.636h-1.3436v20.636h-5.271v-47.026h7.6137q4.9609 0 7.7859 0.89573 4.5475 1.4469 6.7868 5.2021 1.8948 3.135 1.8948 7.0969 0 6.8902-5.0987 10.439-2.9283 2.0326-6.7179 2.3427zm-6.9935-4.203h3.2728q4.7887 0 7.3036-1.8948 3.0661-2.3427 3.0661-6.6835 0-4.6164-3.4106-6.7868-2.446-1.5158-7.0969-1.5158h-3.135zm33.107-4.0652v29.318h-5.0298v-29.318zm-2.4805-14.607q1.4814 0 2.5149 1.0335 1.068 1.068 1.068 2.5494 0 1.5158-1.068 2.5494-1.0335 1.068-2.5494 1.068-1.4814 0-2.5149-1.068-1.068-1.068-1.068-2.5838 0-1.4469 1.068-2.5149 1.068-1.0335 2.5494-1.0335zm38.792 14.607v28.663q0 5.4777-0.96463 8.096-1.6536 4.582-5.96 6.9935-3.3762 1.8948-7.6481 1.8948-6.4423 0-10.335-3.893-3.6518-3.6518-3.8585-9.5774h4.9954q0.27561 3.2384 1.3436 4.9609 1.2058 1.8604 3.3762 2.8939 2.1704 1.0335 4.6164 1.0335 5.0643 0 7.5103-3.5829 1.8948-2.7216 1.8948-7.9582v-4.2719q-4.3064 4.8576-10.335 4.8576-6.1323 0-10.266-4.7198-3.6518-4.203-3.6518-10.611 0-7.1314 4.4097-11.507 3.9963-3.9619 9.7496-3.9619 6.0978 0 10.094 4.8576v-4.1686zm-14.538 3.8585q-4.7542 0-7.5792 3.9274-2.0326 2.825-2.0326 6.9246 0 4.9265 2.6527 7.7515 2.8594 3.1006 6.8902 3.1006 4.6509 0 7.5792-3.6174 2.2393-2.7216 2.2393-7.1658 0-5.4777-3.1695-8.3371-2.8594-2.5838-6.5801-2.5838zm23.53-26.01h5.0298v25.597q1.378-1.6192 2.5149-2.3771 2.5149-1.7225 5.8911-1.7225 3.6174 0 6.339 1.9293 2.6872 1.9293 3.4106 5.4433 0.34451 1.6536 0.34451 4.4442v18.156h-5.0298v-17.811q0-3.514-0.96463-5.2021-1.4125-2.4116-5.0987-2.4116-4.5475 0-6.2356 3.4795-1.1713 2.4116-1.1713 7.3036v14.642h-5.0298zm38.034 26.803v24.667h-5.0298v-24.667h-3.0661v-4.6509h3.0661v-10.508h5.0298v10.508h5.1676v4.6509zm61.047-18.5v6.5112q-2.9972-2.8594-5.5811-4.1341-4.2375-2.1015-8.6472-2.1015-5.0298 0-9.474 2.6872-4.8231 2.8939-7.3725 7.9237-2.136 4.203-2.136 8.9917 0 8.7505 6.4768 14.332 5.6155 4.892 12.54 4.892 5.2021 0 10.025-2.8939 1.757-1.0335 4.1686-3.2728v6.5112q-6.6835 4.582-14.159 4.582-5.9256 0-11.265-2.825-6.7868-3.5829-10.335-10.266-2.7561-5.2365-2.7561-11.093 0-6.0634 2.9283-11.507 3.3418-6.2356 9.4051-9.7152 5.6844-3.2728 12.299-3.2728 5.0988 0 9.6118 2.0671 1.7914 0.86127 4.2719 2.5838zm12.609-8.3027v51.47h-5.0298v-51.47zm14.056 22.152v29.318h-5.0298v-29.318zm-2.4805-14.607q1.4814 0 2.5149 1.0335 1.068 1.068 1.068 2.5494 0 1.5158-1.068 2.5494-1.0335 1.068-2.5494 1.068-1.4814 0-2.5149-1.068-1.068-1.068-1.068-2.5838 0-1.4469 1.068-2.5149 1.068-1.0335 2.5494-1.0335zm34.175 16.743v6.6146q-2.3082-2.5838-4.0308-3.514-2.446-1.3436-5.2021-1.3436-4.6853 0-7.6481 3.4795-2.6872 3.1006-2.6872 7.407 0 4.5131 2.8939 7.6826 2.8939 3.135 7.3725 3.135 3.4451 0 6.339-2.0326 1.2402-0.89573 3.135-3.1006v6.649q-4.6853 3.0661-9.3018 3.0661-7.5103 0-12.023-5.4777-3.5484-4.3064-3.5484-9.853 0-6.6146 4.7198-11.265 4.3064-4.2375 10.887-4.2375 4.8231 0 9.0951 2.7905zm12.23-24.288v32.97l10.611-10.818h6.6835l-12.54 12.471 14.917 16.847h-6.5801l-11.851-13.333-1.2402 1.2747v12.058h-5.0298v-51.47zm39.309 51.47v-48.989l36.656 38.378v-36.415h5.271v49.162l-36.656-38.378v36.242zm78.135-13.608h-22.841q0.1378 2.9972 1.2402 5.0643 1.2402 2.3082 3.3762 3.5829t4.6853 1.2747q3.7207 0 6.2356-2.446 1.2058-1.1369 2.7905-3.7207l4.2375 2.3771q-1.757 3.0661-3.6174 4.7198-4.0652 3.6174-9.8185 3.6174-7.028 0-11.162-5.0987-3.2728-4.0652-3.2728-10.232 0-7.1314 4.1686-11.438 3.9274-4.0652 10.025-4.0652 5.5122 0 9.3362 3.4451 4.6164 4.1341 4.6164 12.023 0 0.24116 0 0.89573zm-5.3054-4.2375q-0.48232-2.446-1.6881-4.0997-2.5838-3.4795-6.8902-3.4795-4.5131 0-7.2002 3.893-1.068 1.5847-1.4469 3.6863zm20.395 2.2049-10.68-13.677h6.1323l7.6481 9.9908 7.6481-9.9908h6.2356l-10.749 13.677 12.196 15.641h-6.0634l-9.2673-11.954-9.3362 11.954h-6.2701zm28.732-9.0262v24.667h-5.0298v-24.667h-3.0661v-4.6509h3.0661v-10.508h5.0298v10.508h5.1676v4.6509z" stroke-width=".26458" aria-label="    Right   Click   Next"/><path d="m36.5 2.5v39c0 14.016-34 14.026-34 0v-39z" fill="#d5d5d5"/><path d="m21.148 4.6h14.121v15.57h-14.214z" fill="#b00"/><path d="m36.5 2.5v39c0 14.016-34 14.026-34 0v-39z" fill="none" stroke="#000" stroke-width="5"/><path d="m2.5 22.321h35.981l-1.9806-0.10805" fill="none" stroke="#000" stroke-width="5"/><path d="m19.5 21.237v-17.098" fill="none" stroke="#000" stroke-width="5"/></svg>
